<svg xmlns="http://www.w3.org/2000/svg" width="500" height="900"><path d="M679,465L755,489L795,407Z" fill="#74c476" stroke="#74c476" stroke-width="1.51"/><path d="M755,489L813,470L795,407Z" fill="#6ec073" stroke="#6ec073" stroke-width="1.51"/><path d="M795,407L647,370L679,465Z" fill="#83cb7d" stroke="#83cb7d" stroke-width="1.51"/><path d="M795,407L696,324L647,370Z" fill="#8dcf81" stroke="#8dcf81" stroke-width="1.51"/><path d="M869,414L798,346L795,407Z" fill="#79c576" stroke="#79c576" stroke-width="1.51"/><path d="M798,346L696,324L795,407Z" fill="#88cd7e" stroke="#88cd7e" stroke-width="1.51"/><path d="M813,470L869,414L795,407Z" fill="#6ec072" stroke="#6ec072" stroke-width="1.51"/><path d="M798,346L810,309L696,324Z" fill="#8fcf80" stroke="#8fcf80" stroke-width="1.51"/><path d="M869,414L810,309L798,346Z" fill="#80c879" stroke="#80c879" stroke-width="1.51"/><path d="M647,370L589,440L679,465Z" fill="#8bce80" stroke="#8bce80" stroke-width="1.51"/><path d="M678,603L800,557L755,489Z" fill="#5db86a" stroke="#5db86a" stroke-width="1.51"/><path d="M755,489L800,557L813,470Z" fill="#61ba6c" stroke="#61ba6c" stroke-width="1.51"/><path d="M911,515L902,415L869,414Z" fill="#5fb96b" stroke="#5fb96b" stroke-width="1.51"/><path d="M678,603L755,489L679,465Z" fill="#6bbe71" stroke="#6bbe71" stroke-width="1.51"/><path d="M589,440L616,531L679,465Z" fill="#80c97b" stroke="#80c97b" stroke-width="1.51"/><path d="M647,370L589,343L589,440Z" fill="#98d485" stroke="#98d485" stroke-width="1.51"/><path d="M637,274L589,343L647,370Z" fill="#a3d88a" stroke="#a3d88a" stroke-width="1.51"/><path d="M869,414L954,330L810,309Z" fill="#7bc475" stroke="#7bc475" stroke-width="1.51"/><path d="M911,515L869,414L813,470Z" fill="#60b96b" stroke="#60b96b" stroke-width="1.51"/><path d="M696,324L637,274L647,370Z" fill="#9fd788" stroke="#9fd788" stroke-width="1.51"/><path d="M769,217L637,274L696,324Z" fill="#a3d88a" stroke="#a3d88a" stroke-width="1.51"/><path d="M616,531L678,603L679,465Z" fill="#6fc072" stroke="#6fc072" stroke-width="1.51"/><path d="M800,557L911,515L813,470Z" fill="#57b567" stroke="#57b567" stroke-width="1.51"/><path d="M678,603L816,602L800,557Z" fill="#54b064" stroke="#54b064" stroke-width="1.51"/><path d="M816,602L911,515L800,557Z" fill="#4cb062" stroke="#4cb062" stroke-width="1.51"/><path d="M589,440L529,477L616,531Z" fill="#86cb7d" stroke="#86cb7d" stroke-width="1.51"/><path d="M616,531L630,619L678,603Z" fill="#68b96d" stroke="#68b96d" stroke-width="1.51"/><path d="M589,343L529,444L589,440Z" fill="#99d486" stroke="#99d486" stroke-width="1.51"/><path d="M529,444L529,477L589,440Z" fill="#91d182" stroke="#91d182" stroke-width="1.51"/><path d="M810,309L769,217L696,324Z" fill="#99d385" stroke="#99d385" stroke-width="1.51"/><path d="M865,196L769,217L810,309Z" fill="#9ad385" stroke="#9ad385" stroke-width="1.51"/><path d="M609,628L630,619L616,531Z" fill="#6ab96d" stroke="#6ab96d" stroke-width="1.51"/><path d="M678,603L824,642L816,602Z" fill="#4fab61" stroke="#4fab61" stroke-width="1.51"/><path d="M816,602L925,591L911,515Z" fill="#43ab5d" stroke="#43ab5d" stroke-width="1.51"/><path d="M804,695L824,642L678,603Z" fill="#4ca65d" stroke="#4ca65d" stroke-width="1.51"/><path d="M630,619L676,698L678,603Z" fill="#5eaf65" stroke="#5eaf65" stroke-width="1.51"/><path d="M525,540L609,628L616,531Z" fill="#74c172" stroke="#74c172" stroke-width="1.51"/><path d="M529,477L525,540L616,531Z" fill="#82c97a" stroke="#82c97a" stroke-width="1.51"/><path d="M451,489L525,540L529,477Z" fill="#8dce7f" stroke="#8dce7f" stroke-width="1.51"/><path d="M902,415L954,330L869,414Z" fill="#6ebe70" stroke="#6ebe70" stroke-width="1.51"/><path d="M1019,438L954,330L902,415Z" fill="#68b76b" stroke="#68b76b" stroke-width="1.51"/><path d="M824,642L925,591L816,602Z" fill="#42a65a" stroke="#42a65a" stroke-width="1.51"/><path d="M1019,438L981,291L954,330Z" fill="#70b96d" stroke="#70b96d" stroke-width="1.51"/><path d="M637,274L483,302L589,343Z" fill="#afde8f" stroke="#afde8f" stroke-width="1.51"/><path d="M589,343L483,302L529,444Z" fill="#a8db8c" stroke="#a8db8c" stroke-width="1.51"/><path d="M636,178L620,200L637,274Z" fill="#b7e193" stroke="#b7e193" stroke-width="1.51"/><path d="M954,330L901,235L810,309Z" fill="#86c97a" stroke="#86c97a" stroke-width="1.51"/><path d="M901,235L865,196L810,309Z" fill="#93cf80" stroke="#93cf80" stroke-width="1.51"/><path d="M769,217L636,178L637,274Z" fill="#b0de90" stroke="#b0de90" stroke-width="1.51"/><path d="M784,139L636,178L769,217Z" fill="#afdd91" stroke="#afdd91" stroke-width="1.51"/><path d="M609,628L676,698L630,619Z" fill="#61ae65" stroke="#61ae65" stroke-width="1.51"/><path d="M824,642L926,664L925,591Z" fill="#3a9f55" stroke="#3a9f55" stroke-width="1.51"/><path d="M676,698L804,695L678,603Z" fill="#51a65e" stroke="#51a65e" stroke-width="1.51"/><path d="M495,213L483,302L637,274Z" fill="#bce495" stroke="#bce495" stroke-width="1.51"/><path d="M529,444L451,489L529,477Z" fill="#93d183" stroke="#93d183" stroke-width="1.51"/><path d="M495,213L637,274L620,200Z" fill="#bce395" stroke="#bce395" stroke-width="1.51"/><path d="M902,134L869,151L865,196Z" fill="#9dd387" stroke="#9dd387" stroke-width="1.51"/><path d="M954,330L981,291L901,235Z" fill="#82c376" stroke="#82c376" stroke-width="1.51"/><path d="M1019,438L902,415L911,515Z" fill="#59b367" stroke="#59b367" stroke-width="1.51"/><path d="M1045,457L1019,438L1009,581Z" fill="#4aa65c" stroke="#4aa65c" stroke-width="1.51"/><path d="M389,394L451,489L529,444Z" fill="#a0d789" stroke="#a0d789" stroke-width="1.51"/><path d="M525,540L488,659L609,628Z" fill="#75bc6f" stroke="#75bc6f" stroke-width="1.51"/><path d="M609,628L630,775L676,698Z" fill="#5ba660" stroke="#5ba660" stroke-width="1.51"/><path d="M865,196L784,139L769,217Z" fill="#a4d78b" stroke="#a4d78b" stroke-width="1.51"/><path d="M636,178L625,142L620,200Z" fill="#bee498" stroke="#bee498" stroke-width="1.51"/><path d="M704,82L625,142L636,178Z" fill="#bfe49b" stroke="#bfe49b" stroke-width="1.51"/><path d="M1009,581L1019,438L911,515Z" fill="#49a85d" stroke="#49a85d" stroke-width="1.51"/><path d="M804,695L926,664L824,642Z" fill="#3c9c54" stroke="#3c9c54" stroke-width="1.51"/><path d="M676,698L738,735L804,695Z" fill="#4a9e5a" stroke="#4a9e5a" stroke-width="1.51"/><path d="M804,695L863,761L926,664Z" fill="#359651" stroke="#359651" stroke-width="1.51"/><path d="M865,196L869,151L784,139Z" fill="#a3d68a" stroke="#a3d68a" stroke-width="1.51"/><path d="M902,134L865,196L901,235Z" fill="#99d184" stroke="#99d184" stroke-width="1.51"/><path d="M1019,438L1121,333L981,291Z" fill="#6bb369" stroke="#6bb369" stroke-width="1.51"/><path d="M1009,581L911,515L925,591Z" fill="#3da559" stroke="#3da559" stroke-width="1.51"/><path d="M926,664L1009,581L925,591Z" fill="#369c53" stroke="#369c53" stroke-width="1.51"/><path d="M485,153L495,213L620,200Z" fill="#c9e99c" stroke="#c9e99c" stroke-width="1.51"/><path d="M483,302L389,394L529,444Z" fill="#acdd8e" stroke="#acdd8e" stroke-width="1.51"/><path d="M1045,457L1066,448L1019,438Z" fill="#53a960" stroke="#53a960" stroke-width="1.51"/><path d="M1146,512L1066,448L1045,457Z" fill="#4aa25a" stroke="#4aa25a" stroke-width="1.51"/><path d="M431,625L488,659L525,540Z" fill="#7cbf73" stroke="#7cbf73" stroke-width="1.51"/><path d="M676,698L711,769L738,735Z" fill="#4c9d5b" stroke="#4c9d5b" stroke-width="1.51"/><path d="M857,56L784,57L784,139Z" fill="#aedb97" stroke="#aedb97" stroke-width="1.51"/><path d="M784,139L704,82L636,178Z" fill="#b8e197" stroke="#b8e197" stroke-width="1.51"/><path d="M1039,243L902,134L901,235Z" fill="#91ca7d" stroke="#91ca7d" stroke-width="1.51"/><path d="M1039,243L901,235L981,291Z" fill="#86c377" stroke="#86c377" stroke-width="1.51"/><path d="M630,775L711,769L676,698Z" fill="#519e5c" stroke="#519e5c" stroke-width="1.51"/><path d="M792,798L863,761L804,695Z" fill="#389351" stroke="#389351" stroke-width="1.51"/><path d="M410,289L389,394L483,302Z" fill="#bde495" stroke="#bde495" stroke-width="1.51"/><path d="M451,489L416,590L525,540Z" fill="#8acb7d" stroke="#8acb7d" stroke-width="1.51"/><path d="M625,142L586,101L620,200Z" fill="#c4e69c" stroke="#c4e69c" stroke-width="1.51"/><path d="M784,57L704,82L784,139Z" fill="#b5df99" stroke="#b5df99" stroke-width="1.51"/><path d="M495,213L410,289L483,302Z" fill="#c4e799" stroke="#c4e799" stroke-width="1.51"/><path d="M371,459L416,590L451,489Z" fill="#96d183" stroke="#96d183" stroke-width="1.51"/><path d="M1121,333L1039,243L981,291Z" fill="#79b76e" stroke="#79b76e" stroke-width="1.51"/><path d="M495,213L395,215L410,289Z" fill="#ceeb9d" stroke="#ceeb9d" stroke-width="1.51"/><path d="M704,82L586,101L625,142Z" fill="#c5e69e" stroke="#c5e69e" stroke-width="1.51"/><path d="M792,798L804,695L738,735Z" fill="#409755" stroke="#409755" stroke-width="1.51"/><path d="M926,664L1057,643L1009,581Z" fill="#30954e" stroke="#30954e" stroke-width="1.51"/><path d="M863,761L937,722L926,664Z" fill="#2d914d" stroke="#2d914d" stroke-width="1.51"/><path d="M416,590L431,625L525,540Z" fill="#82c477" stroke="#82c477" stroke-width="1.51"/><path d="M711,769L792,798L738,735Z" fill="#429756" stroke="#429756" stroke-width="1.51"/><path d="M488,659L630,775L609,628Z" fill="#66ac65" stroke="#66ac65" stroke-width="1.51"/><path d="M489,766L630,775L488,659Z" fill="#67a864" stroke="#67a864" stroke-width="1.51"/><path d="M389,394L371,459L451,489Z" fill="#a5d98b" stroke="#a5d98b" stroke-width="1.51"/><path d="M304,398L371,459L389,394Z" fill="#b2df91" stroke="#b2df91" stroke-width="1.51"/><path d="M586,101L485,153L620,200Z" fill="#cae99e" stroke="#cae99e" stroke-width="1.51"/><path d="M857,56L784,139L869,151Z" fill="#a9d88f" stroke="#a9d88f" stroke-width="1.51"/><path d="M704,82L597,13L586,101Z" fill="#c8e8a8" stroke="#c8e8a8" stroke-width="1.51"/><path d="M673,902L792,798L711,769Z" fill="#428f54" stroke="#428f54" stroke-width="1.51"/><path d="M1009,581L1146,512L1045,457Z" fill="#409e56" stroke="#409e56" stroke-width="1.51"/><path d="M1004,725L1057,643L926,664Z" fill="#2a8c49" stroke="#2a8c49" stroke-width="1.51"/><path d="M902,134L857,56L869,151Z" fill="#a4d68c" stroke="#a4d68c" stroke-width="1.51"/><path d="M955,46L857,56L902,134Z" fill="#a2d490" stroke="#a2d490" stroke-width="1.51"/><path d="M1057,643L1069,637L1009,581Z" fill="#2e914b" stroke="#2e914b" stroke-width="1.51"/><path d="M1131,710L1069,637L1057,643Z" fill="#248544" stroke="#248544" stroke-width="1.51"/><path d="M410,289L323,319L389,394Z" fill="#c2e798" stroke="#c2e798" stroke-width="1.51"/><path d="M421,152L395,215L495,213Z" fill="#d4eea1" stroke="#d4eea1" stroke-width="1.51"/><path d="M1066,448L1121,333L1019,438Z" fill="#5caa62" stroke="#5caa62" stroke-width="1.51"/><path d="M1207,414L1121,333L1066,448Z" fill="#5aa661" stroke="#5aa661" stroke-width="1.51"/><path d="M953,826L937,722L863,761Z" fill="#268949" stroke="#268949" stroke-width="1.51"/><path d="M953,826L1004,725L937,722Z" fill="#238647" stroke="#238647" stroke-width="1.51"/><path d="M937,722L1004,725L926,664Z" fill="#2a8e4a" stroke="#2a8e4a" stroke-width="1.51"/><path d="M396,781L489,766L488,659Z" fill="#71ac69" stroke="#71ac69" stroke-width="1.51"/><path d="M416,590L351,638L431,625Z" fill="#86c276" stroke="#86c276" stroke-width="1.51"/><path d="M371,459L357,593L416,590Z" fill="#92cf80" stroke="#92cf80" stroke-width="1.51"/><path d="M278,574L357,593L371,459Z" fill="#98d183" stroke="#98d183" stroke-width="1.51"/><path d="M1131,710L1102,610L1069,637Z" fill="#258645" stroke="#258645" stroke-width="1.51"/><path d="M1069,637L1102,610L1009,581Z" fill="#2e914c" stroke="#2e914c" stroke-width="1.51"/><path d="M412,35L421,152L485,153Z" fill="#dff2a9" stroke="#dff2a9" stroke-width="1.51"/><path d="M485,153L421,152L495,213Z" fill="#d3eea1" stroke="#d3eea1" stroke-width="1.51"/><path d="M355,712L488,659L431,625Z" fill="#7cb76f" stroke="#7cb76f" stroke-width="1.51"/><path d="M630,775L636,846L711,769Z" fill="#4e985a" stroke="#4e985a" stroke-width="1.51"/><path d="M1102,610L1146,512L1009,581Z" fill="#31964f" stroke="#31964f" stroke-width="1.51"/><path d="M291,215L323,319L395,215Z" fill="#d6efa2" stroke="#d6efa2" stroke-width="1.51"/><path d="M395,215L323,319L410,289Z" fill="#ceeb9d" stroke="#ceeb9d" stroke-width="1.51"/><path d="M601,876L636,846L630,775Z" fill="#529459" stroke="#529459" stroke-width="1.51"/><path d="M323,319L304,398L389,394Z" fill="#bee497" stroke="#bee497" stroke-width="1.51"/><path d="M792,798L888,831L863,761Z" fill="#2f8b4d" stroke="#2f8b4d" stroke-width="1.51"/><path d="M822,913L888,831L792,798Z" fill="#30834b" stroke="#30834b" stroke-width="1.51"/><path d="M357,593L351,638L416,590Z" fill="#8ac479" stroke="#8ac479" stroke-width="1.51"/><path d="M278,574L351,638L357,593Z" fill="#8fc77c" stroke="#8fc77c" stroke-width="1.51"/><path d="M686,-55L597,13L704,82Z" fill="#c5e6af" stroke="#c5e6af" stroke-width="1.51"/><path d="M586,101L540,29L485,153Z" fill="#d3eda7" stroke="#d3eda7" stroke-width="1.51"/><path d="M728,-36L704,82L784,57Z" fill="#bae1a6" stroke="#bae1a6" stroke-width="1.51"/><path d="M856,-26L728,-36L784,57Z" fill="#b4dea8" stroke="#b4dea8" stroke-width="1.51"/><path d="M1038,78L955,46L902,134Z" fill="#9dcd89" stroke="#9dcd89" stroke-width="1.51"/><path d="M1060,125L902,134L1039,243Z" fill="#91c57d" stroke="#91c57d" stroke-width="1.51"/><path d="M597,13L540,29L586,101Z" fill="#d0ecae" stroke="#d0ecae" stroke-width="1.51"/><path d="M1121,333L1118,209L1039,243Z" fill="#7bb56d" stroke="#7bb56d" stroke-width="1.51"/><path d="M1176,240L1118,209L1121,333Z" fill="#78b26c" stroke="#78b26c" stroke-width="1.51"/><path d="M1118,209L1060,125L1039,243Z" fill="#88bc75" stroke="#88bc75" stroke-width="1.51"/><path d="M888,831L953,826L863,761Z" fill="#258649" stroke="#258649" stroke-width="1.51"/><path d="M1004,725L1131,710L1057,643Z" fill="#238343" stroke="#238343" stroke-width="1.51"/><path d="M489,766L491,818L630,775Z" fill="#62a161" stroke="#62a161" stroke-width="1.51"/><path d="M418,817L491,818L489,766Z" fill="#6aa364" stroke="#6aa364" stroke-width="1.51"/><path d="M421,152L341,185L395,215Z" fill="#dcf1a5" stroke="#dcf1a5" stroke-width="1.51"/><path d="M206,369L261,467L304,398Z" fill="#bbe398" stroke="#bbe398" stroke-width="1.51"/><path d="M308,38L341,185L421,152Z" fill="#e7f6ad" stroke="#e7f6ad" stroke-width="1.51"/><path d="M856,-26L784,57L857,56Z" fill="#adda9f" stroke="#adda9f" stroke-width="1.51"/><path d="M558,-109L463,-53L540,29Z" fill="#d9efba" stroke="#d9efba" stroke-width="1.51"/><path d="M1086,36L1038,78L1060,125Z" fill="#95c284" stroke="#95c284" stroke-width="1.51"/><path d="M1060,125L1038,78L902,134Z" fill="#99c882" stroke="#99c882" stroke-width="1.51"/><path d="M636,846L673,902L711,769Z" fill="#499056" stroke="#499056" stroke-width="1.51"/><path d="M888,831L953,932L953,826Z" fill="#207943" stroke="#207943" stroke-width="1.51"/><path d="M491,818L601,876L630,775Z" fill="#5a995d" stroke="#5a995d" stroke-width="1.51"/><path d="M1146,512L1207,414L1066,448Z" fill="#4a9f5a" stroke="#4a9f5a" stroke-width="1.51"/><path d="M1236,569L1198,486L1146,512Z" fill="#369350" stroke="#369350" stroke-width="1.51"/><path d="M1236,569L1146,512L1102,610Z" fill="#2d914d" stroke="#2d914d" stroke-width="1.51"/><path d="M931,-10L856,-26L857,56Z" fill="#a8d79f" stroke="#a8d79f" stroke-width="1.51"/><path d="M931,-10L857,56L955,46Z" fill="#a3d398" stroke="#a3d398" stroke-width="1.51"/><path d="M351,638L355,712L431,625Z" fill="#83bb73" stroke="#83bb73" stroke-width="1.51"/><path d="M234,700L355,712L351,638Z" fill="#86ba74" stroke="#86ba74" stroke-width="1.51"/><path d="M304,398L261,467L371,459Z" fill="#b0de92" stroke="#b0de92" stroke-width="1.51"/><path d="M206,369L304,398L323,319Z" fill="#c5e79b" stroke="#c5e79b" stroke-width="1.51"/><path d="M953,826L1003,817L1004,725Z" fill="#1d7f43" stroke="#1d7f43" stroke-width="1.51"/><path d="M1203,187L1111,141L1118,209Z" fill="#85b673" stroke="#85b673" stroke-width="1.51"/><path d="M1118,209L1111,141L1060,125Z" fill="#8bbb77" stroke="#8bbb77" stroke-width="1.51"/><path d="M1198,486L1207,414L1146,512Z" fill="#459a57" stroke="#459a57" stroke-width="1.51"/><path d="M261,467L278,574L371,459Z" fill="#a4d78a" stroke="#a4d78a" stroke-width="1.51"/><path d="M1207,414L1195,306L1121,333Z" fill="#63a663" stroke="#63a663" stroke-width="1.51"/><path d="M601,876L673,902L636,846Z" fill="#4d8c56" stroke="#4d8c56" stroke-width="1.51"/><path d="M1083,915L1090,844L1003,817Z" fill="#156d3a" stroke="#156d3a" stroke-width="1.51"/><path d="M1010,-63L931,-10L955,46Z" fill="#a0ce9a" stroke="#a0ce9a" stroke-width="1.51"/><path d="M1195,306L1176,240L1121,333Z" fill="#70ad68" stroke="#70ad68" stroke-width="1.51"/><path d="M728,-36L686,-55L704,82Z" fill="#bfe4af" stroke="#bfe4af" stroke-width="1.51"/><path d="M663,-92L686,-55L801,-98Z" fill="#bde3ae" stroke="#bde3ae" stroke-width="1.51"/><path d="M491,818L532,912L601,876Z" fill="#5c935b" stroke="#5c935b" stroke-width="1.51"/><path d="M355,712L396,781L488,659Z" fill="#78b06c" stroke="#78b06c" stroke-width="1.51"/><path d="M1090,844L1131,710L1004,725Z" fill="#197a3f" stroke="#197a3f" stroke-width="1.51"/><path d="M341,185L291,215L395,215Z" fill="#ddf2a6" stroke="#ddf2a6" stroke-width="1.51"/><path d="M223,218L291,215L223,110Z" fill="#e9f7ae" stroke="#e9f7ae" stroke-width="1.51"/><path d="M779,920L822,913L792,798Z" fill="#34814b" stroke="#34814b" stroke-width="1.51"/><path d="M673,902L779,920L792,798Z" fill="#3c854f" stroke="#3c854f" stroke-width="1.51"/><path d="M396,781L418,817L489,766Z" fill="#6fa666" stroke="#6fa666" stroke-width="1.51"/><path d="M601,876L580,960L673,902Z" fill="#4f8955" stroke="#4f8955" stroke-width="1.51"/><path d="M540,29L412,35L485,153Z" fill="#dbf0af" stroke="#dbf0af" stroke-width="1.51"/><path d="M398,15L412,35L463,-53Z" fill="#e4f4c0" stroke="#e4f4c0" stroke-width="1.51"/><path d="M1207,414L1253,402L1195,306Z" fill="#5ba15f" stroke="#5ba15f" stroke-width="1.51"/><path d="M1273,217L1203,187L1176,240Z" fill="#7caf6d" stroke="#7caf6d" stroke-width="1.51"/><path d="M1198,486L1253,402L1207,414Z" fill="#4c9a5a" stroke="#4c9a5a" stroke-width="1.51"/><path d="M1288,500L1253,402L1198,486Z" fill="#429556" stroke="#429556" stroke-width="1.51"/><path d="M1214,651L1236,569L1102,610Z" fill="#258747" stroke="#258747" stroke-width="1.51"/><path d="M686,-55L663,-92L597,13Z" fill="#c7e7b2" stroke="#c7e7b2" stroke-width="1.51"/><path d="M801,-98L686,-55L728,-36Z" fill="#bbe1ac" stroke="#bbe1ac" stroke-width="1.51"/><path d="M801,-98L728,-36L856,-26Z" fill="#b3dda8" stroke="#b3dda8" stroke-width="1.51"/><path d="M673,902L671,1014L779,920Z" fill="#418450" stroke="#418450" stroke-width="1.51"/><path d="M441,936L532,912L491,818Z" fill="#61925c" stroke="#61925c" stroke-width="1.51"/><path d="M1038,78L1070,9L955,46Z" fill="#9ac78d" stroke="#9ac78d" stroke-width="1.51"/><path d="M860,-93L801,-98L856,-26Z" fill="#addaa4" stroke="#addaa4" stroke-width="1.51"/><path d="M1111,141L1086,36L1060,125Z" fill="#92bf7e" stroke="#92bf7e" stroke-width="1.51"/><path d="M1190,103L1086,36L1111,141Z" fill="#90bc7e" stroke="#90bc7e" stroke-width="1.51"/><path d="M1203,187L1118,209L1176,240Z" fill="#7fb36f" stroke="#7fb36f" stroke-width="1.51"/><path d="M1253,312L1176,240L1195,306Z" fill="#6faa67" stroke="#6faa67" stroke-width="1.51"/><path d="M860,-93L856,-26L941,-84Z" fill="#a7d7a0" stroke="#a7d7a0" stroke-width="1.51"/><path d="M211,307L206,369L323,319Z" fill="#ceeba0" stroke="#ceeba0" stroke-width="1.51"/><path d="M261,467L177,478L278,574Z" fill="#a8d88e" stroke="#a8d88e" stroke-width="1.51"/><path d="M1188,761L1214,651L1131,710Z" fill="#17783e" stroke="#17783e" stroke-width="1.51"/><path d="M1131,710L1214,651L1102,610Z" fill="#208142" stroke="#208142" stroke-width="1.51"/><path d="M412,35L308,38L421,152Z" fill="#e7f6b4" stroke="#e7f6b4" stroke-width="1.51"/><path d="M291,215L211,307L323,319Z" fill="#d5efa3" stroke="#d5efa3" stroke-width="1.51"/><path d="M463,-53L412,35L540,29Z" fill="#dff2bd" stroke="#dff2bd" stroke-width="1.51"/><path d="M1253,402L1253,312L1195,306Z" fill="#62a362" stroke="#62a362" stroke-width="1.51"/><path d="M223,218L211,307L291,215Z" fill="#dff2a8" stroke="#dff2a8" stroke-width="1.51"/><path d="M941,-84L856,-26L931,-10Z" fill="#a4d59f" stroke="#a4d59f" stroke-width="1.51"/><path d="M418,817L441,936L491,818Z" fill="#689a60" stroke="#689a60" stroke-width="1.51"/><path d="M396,781L362,816L418,817Z" fill="#72a668" stroke="#72a668" stroke-width="1.51"/><path d="M355,712L362,816L396,781Z" fill="#78ac6b" stroke="#78ac6b" stroke-width="1.51"/><path d="M250,786L362,816L355,712Z" fill="#7cae6e" stroke="#7cae6e" stroke-width="1.51"/><path d="M234,700L351,638L278,574Z" fill="#8ec37a" stroke="#8ec37a" stroke-width="1.51"/><path d="M1086,36L1070,9L1038,78Z" fill="#96c28a" stroke="#96c28a" stroke-width="1.51"/><path d="M1157,-4L1070,9L1086,36Z" fill="#94bf8d" stroke="#94bf8d" stroke-width="1.51"/><path d="M1214,651L1252,580L1236,569Z" fill="#228546" stroke="#228546" stroke-width="1.51"/><path d="M1236,569L1288,500L1198,486Z" fill="#34904f" stroke="#34904f" stroke-width="1.51"/><path d="M1003,817L1090,844L1004,725Z" fill="#197940" stroke="#197940" stroke-width="1.51"/><path d="M953,932L1003,817L953,826Z" fill="#1d7640" stroke="#1d7640" stroke-width="1.51"/><path d="M822,913L953,932L888,831Z" fill="#247844" stroke="#247844" stroke-width="1.51"/><path d="M877,978L953,932L822,913Z" fill="#257743" stroke="#257743" stroke-width="1.51"/><path d="M877,978L822,913L779,920Z" fill="#2e7b47" stroke="#2e7b47" stroke-width="1.51"/><path d="M558,-109L540,29L597,13Z" fill="#d3edb8" stroke="#d3edb8" stroke-width="1.51"/><path d="M223,110L291,215L341,185Z" fill="#e7f6ad" stroke="#e7f6ad" stroke-width="1.51"/><path d="M206,369L177,478L261,467Z" fill="#b9e198" stroke="#b9e198" stroke-width="1.51"/><path d="M211,307L189,335L206,369Z" fill="#d0eca2" stroke="#d0eca2" stroke-width="1.51"/><path d="M153,225L189,335L211,307Z" fill="#dbf1a7" stroke="#dbf1a7" stroke-width="1.51"/><path d="M1010,-63L941,-84L931,-10Z" fill="#a0cf9a" stroke="#a0cf9a" stroke-width="1.51"/><path d="M532,912L580,960L601,876Z" fill="#558c57" stroke="#558c57" stroke-width="1.51"/><path d="M563,1003L580,960L532,912Z" fill="#578d58" stroke="#578d58" stroke-width="1.51"/><path d="M126,370L177,478L206,369Z" fill="#c3e69e" stroke="#c3e69e" stroke-width="1.51"/><path d="M1253,402L1353,286L1253,312Z" fill="#619f60" stroke="#619f60" stroke-width="1.51"/><path d="M1252,580L1288,500L1236,569Z" fill="#298a4b" stroke="#298a4b" stroke-width="1.51"/><path d="M1280,144L1190,103L1203,187Z" fill="#84b173" stroke="#84b173" stroke-width="1.51"/><path d="M1203,187L1190,103L1111,141Z" fill="#89b675" stroke="#89b675" stroke-width="1.51"/><path d="M1071,-77L1010,-63L1070,9Z" fill="#99c493" stroke="#99c493" stroke-width="1.51"/><path d="M1070,9L1010,-63L955,46Z" fill="#9cc996" stroke="#9cc996" stroke-width="1.51"/><path d="M663,-92L558,-109L597,13Z" fill="#cdeab5" stroke="#cdeab5" stroke-width="1.51"/><path d="M801,-98L558,-109L663,-92Z" fill="#c3e6b1" stroke="#c3e6b1" stroke-width="1.51"/><path d="M1090,844L1188,761L1131,710Z" fill="#11733c" stroke="#11733c" stroke-width="1.51"/><path d="M1214,651L1319,657L1252,580Z" fill="#1b7e42" stroke="#1b7e42" stroke-width="1.51"/><path d="M1384,559L1331,490L1288,500Z" fill="#31864c" stroke="#31864c" stroke-width="1.51"/><path d="M147,545L234,700L278,574Z" fill="#98ca82" stroke="#98ca82" stroke-width="1.51"/><path d="M721,1041L877,978L779,920Z" fill="#347e4a" stroke="#347e4a" stroke-width="1.51"/><path d="M398,15L308,38L412,35Z" fill="#eaf7be" stroke="#eaf7be" stroke-width="1.51"/><path d="M345,-53L308,38L398,15Z" fill="#edf8c4" stroke="#edf8c4" stroke-width="1.51"/><path d="M345,-53L398,15L463,-53Z" fill="#e7f6c1" stroke="#e7f6c1" stroke-width="1.51"/><path d="M1253,312L1273,217L1176,240Z" fill="#73aa69" stroke="#73aa69" stroke-width="1.51"/><path d="M1353,286L1273,217L1253,312Z" fill="#6da265" stroke="#6da265" stroke-width="1.51"/><path d="M558,-109L468,-90L463,-53Z" fill="#dcf1bc" stroke="#dcf1bc" stroke-width="1.51"/><path d="M362,816L441,936L418,817Z" fill="#6d9c63" stroke="#6d9c63" stroke-width="1.51"/><path d="M425,970L441,936L326,948Z" fill="#6b9561" stroke="#6b9561" stroke-width="1.51"/><path d="M580,960L671,1014L673,902Z" fill="#4b8753" stroke="#4b8753" stroke-width="1.51"/><path d="M563,1003L671,1014L580,960Z" fill="#508a55" stroke="#508a55" stroke-width="1.51"/><path d="M1090,844L1189,812L1188,761Z" fill="#0c6d39" stroke="#0c6d39" stroke-width="1.51"/><path d="M1311,713L1319,657L1214,651Z" fill="#14743c" stroke="#14743c" stroke-width="1.51"/><path d="M1205,922L1189,812L1090,844Z" fill="#0a6436" stroke="#0a6436" stroke-width="1.51"/><path d="M1083,915L1003,817L953,932Z" fill="#186c3b" stroke="#186c3b" stroke-width="1.51"/><path d="M177,478L147,545L278,574Z" fill="#a6d78c" stroke="#a6d78c" stroke-width="1.51"/><path d="M72,489L147,545L177,478Z" fill="#aedb97" stroke="#aedb97" stroke-width="1.51"/><path d="M469,1014L563,1003L532,912Z" fill="#5c8e5a" stroke="#5c8e5a" stroke-width="1.51"/><path d="M77,299L126,370L189,335Z" fill="#d4edaa" stroke="#d4edaa" stroke-width="1.51"/><path d="M189,335L126,370L206,369Z" fill="#ceeba2" stroke="#ceeba2" stroke-width="1.51"/><path d="M308,38L223,110L341,185Z" fill="#eef9b2" stroke="#eef9b2" stroke-width="1.51"/><path d="M1036,964L1083,915L953,932Z" fill="#17693a" stroke="#17693a" stroke-width="1.51"/><path d="M234,700L250,786L355,712Z" fill="#84b473" stroke="#84b473" stroke-width="1.51"/><path d="M149,741L250,786L234,700Z" fill="#89b576" stroke="#89b576" stroke-width="1.51"/><path d="M1288,500L1331,490L1253,402Z" fill="#409154" stroke="#409154" stroke-width="1.51"/><path d="M1384,559L1288,500L1252,580Z" fill="#298549" stroke="#298549" stroke-width="1.51"/><path d="M1190,103L1157,-4L1086,36Z" fill="#91bb86" stroke="#91bb86" stroke-width="1.51"/><path d="M1252,49L1157,-4L1190,103Z" fill="#8db683" stroke="#8db683" stroke-width="1.51"/><path d="M1010,-63L1051,-97L941,-84Z" fill="#9dca97" stroke="#9dca97" stroke-width="1.51"/><path d="M941,-84L1051,-97L860,-93Z" fill="#a1d09b" stroke="#a1d09b" stroke-width="1.51"/><path d="M860,-93L1051,-97L801,-98Z" fill="#a5d59f" stroke="#a5d59f" stroke-width="1.51"/><path d="M1157,-4L1071,-77L1070,9Z" fill="#95bf90" stroke="#95bf90" stroke-width="1.51"/><path d="M153,225L211,307L223,218Z" fill="#e2f4aa" stroke="#e2f4aa" stroke-width="1.51"/><path d="M1071,-77L1051,-97L1010,-63Z" fill="#99c594" stroke="#99c594" stroke-width="1.51"/><path d="M801,-98L429,-123L558,-109Z" fill="#cfebb5" stroke="#cfebb5" stroke-width="1.51"/><path d="M1202,-113L1051,-97L1071,-77Z" fill="#95bf90" stroke="#95bf90" stroke-width="1.51"/><path d="M563,1003L721,1041L671,1014Z" fill="#4a8753" stroke="#4a8753" stroke-width="1.51"/><path d="M671,1014L721,1041L779,920Z" fill="#3e824f" stroke="#3e824f" stroke-width="1.51"/><path d="M928,1013L1036,964L953,932Z" fill="#1b6e3d" stroke="#1b6e3d" stroke-width="1.51"/><path d="M138,187L153,225L223,218Z" fill="#eaf7b0" stroke="#eaf7b0" stroke-width="1.51"/><path d="M223,110L138,187L223,218Z" fill="#eef9b2" stroke="#eef9b2" stroke-width="1.51"/><path d="M308,38L251,43L223,110Z" fill="#f3fabe" stroke="#f3fabe" stroke-width="1.51"/><path d="M255,-17L251,43L308,38Z" fill="#f3fac6" stroke="#f3fac6" stroke-width="1.51"/><path d="M1273,217L1280,144L1203,187Z" fill="#7ead6f" stroke="#7ead6f" stroke-width="1.51"/><path d="M1333,201L1280,144L1273,217Z" fill="#7ba86c" stroke="#7ba86c" stroke-width="1.51"/><path d="M928,1013L953,932L877,978Z" fill="#207441" stroke="#207441" stroke-width="1.51"/><path d="M1299,827L1188,761L1189,812Z" fill="#046837" stroke="#046837" stroke-width="1.51"/><path d="M429,-123L345,-53L463,-53Z" fill="#e6f5c1" stroke="#e6f5c1" stroke-width="1.51"/><path d="M721,1041L928,1013L877,978Z" fill="#2c7a46" stroke="#2c7a46" stroke-width="1.51"/><path d="M250,786L255,819L362,816Z" fill="#7ca96e" stroke="#7ca96e" stroke-width="1.51"/><path d="M140,865L255,819L250,786Z" fill="#81a971" stroke="#81a971" stroke-width="1.51"/><path d="M441,936L469,1014L532,912Z" fill="#61905c" stroke="#61905c" stroke-width="1.51"/><path d="M563,1003L469,1014L721,1041Z" fill="#538b57" stroke="#538b57" stroke-width="1.51"/><path d="M326,948L441,936L362,816Z" fill="#6d9662" stroke="#6d9662" stroke-width="1.51"/><path d="M468,-90L429,-123L463,-53Z" fill="#e1f3be" stroke="#e1f3be" stroke-width="1.51"/><path d="M558,-109L429,-123L468,-90Z" fill="#ddf1bc" stroke="#ddf1bc" stroke-width="1.51"/><path d="M1401,-146L429,-123L801,-98Z" fill="#a8d7a1" stroke="#a8d7a1" stroke-width="1.51"/><path d="M1311,713L1214,651L1188,761Z" fill="#11733b" stroke="#11733b" stroke-width="1.51"/><path d="M1390,442L1253,402L1331,490Z" fill="#448f55" stroke="#448f55" stroke-width="1.51"/><path d="M1390,442L1353,286L1253,402Z" fill="#55955a" stroke="#55955a" stroke-width="1.51"/><path d="M100,177L138,187L123,79Z" fill="#f4fbbd" stroke="#f4fbbd" stroke-width="1.51"/><path d="M153,225L77,299L189,335Z" fill="#ddf2ad" stroke="#ddf2ad" stroke-width="1.51"/><path d="M1353,286L1333,201L1273,217Z" fill="#73a367" stroke="#73a367" stroke-width="1.51"/><path d="M1280,144L1252,49L1190,103Z" fill="#88b278" stroke="#88b278" stroke-width="1.51"/><path d="M1157,-4L1202,-113L1071,-77Z" fill="#92bc8e" stroke="#92bc8e" stroke-width="1.51"/><path d="M1346,130L1252,49L1280,144Z" fill="#85ac74" stroke="#85ac74" stroke-width="1.51"/><path d="M425,970L469,1014L441,936Z" fill="#65925e" stroke="#65925e" stroke-width="1.51"/><path d="M333,987L469,1014L425,970Z" fill="#699460" stroke="#699460" stroke-width="1.51"/><path d="M1205,922L1090,844L1083,915Z" fill="#0e6135" stroke="#0e6135" stroke-width="1.51"/><path d="M1299,827L1311,713L1188,761Z" fill="#046a38" stroke="#046a38" stroke-width="1.51"/><path d="M81,655L138,695L147,545Z" fill="#9ac888" stroke="#9ac888" stroke-width="1.51"/><path d="M147,545L138,695L234,700Z" fill="#96c580" stroke="#96c580" stroke-width="1.51"/><path d="M305,-75L255,-17L345,-53Z" fill="#f1fac8" stroke="#f1fac8" stroke-width="1.51"/><path d="M345,-53L255,-17L308,38Z" fill="#f1fac8" stroke="#f1fac8" stroke-width="1.51"/><path d="M123,79L138,187L223,110Z" fill="#f6fcba" stroke="#f6fcba" stroke-width="1.51"/><path d="M1357,636L1252,580L1319,657Z" fill="#1b7941" stroke="#1b7941" stroke-width="1.51"/><path d="M1384,559L1390,442L1331,490Z" fill="#35854d" stroke="#35854d" stroke-width="1.51"/><path d="M1424,188L1346,130L1333,201Z" fill="#7aa16b" stroke="#7aa16b" stroke-width="1.51"/><path d="M1383,740L1357,636L1319,657Z" fill="#126c39" stroke="#126c39" stroke-width="1.51"/><path d="M429,-123L305,-75L345,-53Z" fill="#ecf8c4" stroke="#ecf8c4" stroke-width="1.51"/><path d="M261,910L362,816L255,819Z" fill="#79a26a" stroke="#79a26a" stroke-width="1.51"/><path d="M261,910L326,948L362,816Z" fill="#739a65" stroke="#739a65" stroke-width="1.51"/><path d="M138,695L149,741L234,700Z" fill="#8fbb7a" stroke="#8fbb7a" stroke-width="1.51"/><path d="M126,370L72,489L177,478Z" fill="#bbe2a0" stroke="#bbe2a0" stroke-width="1.51"/><path d="M138,695L31,751L149,741Z" fill="#8fb881" stroke="#8fb881" stroke-width="1.51"/><path d="M55,406L72,489L126,370Z" fill="#c2e5a6" stroke="#c2e5a6" stroke-width="1.51"/><path d="M1357,636L1384,559L1252,580Z" fill="#1f7d43" stroke="#1f7d43" stroke-width="1.51"/><path d="M40,208L77,299L153,225Z" fill="#e7f5b7" stroke="#e7f5b7" stroke-width="1.51"/><path d="M1036,964L1061,1012L1083,915Z" fill="#136637" stroke="#136637" stroke-width="1.51"/><path d="M928,1013L1061,1012L1036,964Z" fill="#186b3b" stroke="#186b3b" stroke-width="1.51"/><path d="M1129,1038L1061,1012L928,1013Z" fill="#156839" stroke="#156839" stroke-width="1.51"/><path d="M159,892L261,910L255,819Z" fill="#7c9f6c" stroke="#7c9f6c" stroke-width="1.51"/><path d="M77,299L55,406L126,370Z" fill="#d0ecad" stroke="#d0ecad" stroke-width="1.51"/><path d="M138,187L100,177L153,225Z" fill="#edf8b7" stroke="#edf8b7" stroke-width="1.51"/><path d="M-53,331L-39,448L55,406Z" fill="#c9e8b3" stroke="#c9e8b3" stroke-width="1.51"/><path d="M123,79L223,110L251,43Z" fill="#f7fcbf" stroke="#f7fcbf" stroke-width="1.51"/><path d="M1333,201L1346,130L1280,144Z" fill="#7ea76e" stroke="#7ea76e" stroke-width="1.51"/><path d="M1424,188L1333,201L1353,286Z" fill="#729e65" stroke="#729e65" stroke-width="1.51"/><path d="M1153,1036L1205,922L1083,915Z" fill="#0b5e34" stroke="#0b5e34" stroke-width="1.51"/><path d="M1383,740L1424,625L1357,636Z" fill="#136a39" stroke="#136a39" stroke-width="1.51"/><path d="M249,988L333,987L326,948Z" fill="#749866" stroke="#749866" stroke-width="1.51"/><path d="M326,948L333,987L425,970Z" fill="#6f9663" stroke="#6f9663" stroke-width="1.51"/><path d="M149,741L140,865L250,786Z" fill="#86af74" stroke="#86af74" stroke-width="1.51"/><path d="M52,556L81,655L147,545Z" fill="#a0d091" stroke="#a0d091" stroke-width="1.51"/><path d="M52,556L147,545L72,489Z" fill="#aad899" stroke="#aad899" stroke-width="1.51"/><path d="M7,518L52,556L72,489Z" fill="#adda9f" stroke="#adda9f" stroke-width="1.51"/><path d="M1205,922L1299,827L1189,812Z" fill="#035f34" stroke="#035f34" stroke-width="1.51"/><path d="M1513,512L1430,456L1384,559Z" fill="#317c48" stroke="#317c48" stroke-width="1.51"/><path d="M1390,442L1457,339L1353,286Z" fill="#579059" stroke="#579059" stroke-width="1.51"/><path d="M1384,559L1430,456L1390,442Z" fill="#37824d" stroke="#37824d" stroke-width="1.51"/><path d="M1424,625L1384,559L1357,636Z" fill="#1c7440" stroke="#1c7440" stroke-width="1.51"/><path d="M167,-34L251,43L255,-17Z" fill="#f8fccd" stroke="#f8fccd" stroke-width="1.51"/><path d="M167,-34L123,79L251,43Z" fill="#fafdca" stroke="#fafdca" stroke-width="1.51"/><path d="M305,-75L253,-91L255,-17Z" fill="#f4fbca" stroke="#f4fbca" stroke-width="1.51"/><path d="M429,-123L253,-91L305,-75Z" fill="#eff9c6" stroke="#eff9c6" stroke-width="1.51"/><path d="M1311,-19L1202,-113L1157,-4Z" fill="#8db58b" stroke="#8db58b" stroke-width="1.51"/><path d="M1051,-97L1202,-113L801,-98Z" fill="#9bc896" stroke="#9bc896" stroke-width="1.51"/><path d="M1311,-19L1157,-4L1252,49Z" fill="#8bb389" stroke="#8bb389" stroke-width="1.51"/><path d="M1383,740L1319,657L1311,713Z" fill="#0f6b38" stroke="#0f6b38" stroke-width="1.51"/><path d="M1418,41L1331,28L1346,130Z" fill="#83a578" stroke="#83a578" stroke-width="1.51"/><path d="M1346,130L1331,28L1252,49Z" fill="#85ab7a" stroke="#85ab7a" stroke-width="1.51"/><path d="M1299,827L1383,740L1311,713Z" fill="#046435" stroke="#046435" stroke-width="1.51"/><path d="M-29,69L40,208L100,177Z" fill="#f6fbc7" stroke="#f6fbc7" stroke-width="1.51"/><path d="M100,177L40,208L153,225Z" fill="#edf8ba" stroke="#edf8ba" stroke-width="1.51"/><path d="M-39,448L7,518L72,489Z" fill="#b5dfa8" stroke="#b5dfa8" stroke-width="1.51"/><path d="M1061,1012L1129,1038L1083,915Z" fill="#106335" stroke="#106335" stroke-width="1.51"/><path d="M1205,922L1298,901L1299,827Z" fill="#005830" stroke="#005830" stroke-width="1.51"/><path d="M1299,827L1395,802L1383,740Z" fill="#005d33" stroke="#005d33" stroke-width="1.51"/><path d="M721,1041L1129,1038L928,1013Z" fill="#1f7340" stroke="#1f7340" stroke-width="1.51"/><path d="M1469,435L1457,339L1390,442Z" fill="#4a8753" stroke="#4a8753" stroke-width="1.51"/><path d="M1469,435L1390,442L1430,456Z" fill="#418450" stroke="#418450" stroke-width="1.51"/><path d="M123,79L99,51L100,177Z" fill="#fafcc4" stroke="#fafcc4" stroke-width="1.51"/><path d="M253,-91L167,-34L255,-17Z" fill="#f8fccc" stroke="#f8fccc" stroke-width="1.51"/><path d="M1331,28L1311,-19L1252,49Z" fill="#88ad84" stroke="#88ad84" stroke-width="1.51"/><path d="M52,556L5,590L81,655Z" fill="#9fce95" stroke="#9fce95" stroke-width="1.51"/><path d="M-39,448L72,489L55,406Z" fill="#bde3ab" stroke="#bde3ab" stroke-width="1.51"/><path d="M1465,222L1424,188L1353,286Z" fill="#6f9963" stroke="#6f9963" stroke-width="1.51"/><path d="M1331,28L1345,-65L1311,-19Z" fill="#87aa86" stroke="#87aa86" stroke-width="1.51"/><path d="M1513,512L1469,435L1430,456Z" fill="#3b814d" stroke="#3b814d" stroke-width="1.51"/><path d="M42,847L140,865L149,741Z" fill="#85ab7a" stroke="#85ab7a" stroke-width="1.51"/><path d="M261,910L249,988L326,948Z" fill="#769967" stroke="#769967" stroke-width="1.51"/><path d="M31,751L138,695L81,655Z" fill="#92bd85" stroke="#92bd85" stroke-width="1.51"/><path d="M167,-34L99,51L123,79Z" fill="#fbfdcf" stroke="#fbfdcf" stroke-width="1.51"/><path d="M1264,1019L1298,901L1205,922Z" fill="#015730" stroke="#015730" stroke-width="1.51"/><path d="M140,865L159,892L255,819Z" fill="#81a46f" stroke="#81a46f" stroke-width="1.51"/><path d="M1129,1038L1153,1036L1083,915Z" fill="#0e6034" stroke="#0e6034" stroke-width="1.51"/><path d="M151,978L249,988L261,910Z" fill="#7a9b6a" stroke="#7a9b6a" stroke-width="1.51"/><path d="M333,987L249,988L469,1014Z" fill="#709763" stroke="#709763" stroke-width="1.51"/><path d="M7,518L5,590L52,556Z" fill="#a6d79e" stroke="#a6d79e" stroke-width="1.51"/><path d="M1418,41L1345,-65L1331,28Z" fill="#85a684" stroke="#85a684" stroke-width="1.51"/><path d="M1457,339L1465,222L1353,286Z" fill="#65935e" stroke="#65935e" stroke-width="1.51"/><path d="M1515,333L1465,222L1457,339Z" fill="#62915c" stroke="#62915c" stroke-width="1.51"/><path d="M1298,901L1395,802L1299,827Z" fill="#005831" stroke="#005831" stroke-width="1.51"/><path d="M1548,690L1482,598L1424,625Z" fill="#176a3a" stroke="#176a3a" stroke-width="1.51"/><path d="M1424,625L1482,598L1384,559Z" fill="#1d723f" stroke="#1d723f" stroke-width="1.51"/><path d="M1522,589L1482,598L1548,690Z" fill="#186c3b" stroke="#186c3b" stroke-width="1.51"/><path d="M1533,388L1515,333L1457,339Z" fill="#568c58" stroke="#568c58" stroke-width="1.51"/><path d="M7,518L-90,547L5,590Z" fill="#a8d7a1" stroke="#a8d7a1" stroke-width="1.51"/><path d="M-53,331L55,406L77,299Z" fill="#d4edb6" stroke="#d4edb6" stroke-width="1.51"/><path d="M16,727L81,655L-40,697Z" fill="#94be8d" stroke="#94be8d" stroke-width="1.51"/><path d="M16,727L31,751L81,655Z" fill="#91bc8a" stroke="#91bc8a" stroke-width="1.51"/><path d="M98,973L151,978L159,892Z" fill="#7e9d72" stroke="#7e9d72" stroke-width="1.51"/><path d="M-40,697L81,655L5,590Z" fill="#99c692" stroke="#99c692" stroke-width="1.51"/><path d="M1482,598L1513,512L1384,559Z" fill="#237643" stroke="#237643" stroke-width="1.51"/><path d="M1418,41L1346,130L1424,188Z" fill="#7fa06e" stroke="#7fa06e" stroke-width="1.51"/><path d="M1311,-19L1308,-123L1202,-113Z" fill="#89b089" stroke="#89b089" stroke-width="1.51"/><path d="M1564,148L1418,41L1424,188Z" fill="#7c9c6b" stroke="#7c9c6b" stroke-width="1.51"/><path d="M1533,388L1457,339L1469,435Z" fill="#4e8955" stroke="#4e8955" stroke-width="1.51"/><path d="M1465,222L1564,148L1424,188Z" fill="#749866" stroke="#749866" stroke-width="1.51"/><path d="M-67,284L-53,331L77,299Z" fill="#ddf1bc" stroke="#ddf1bc" stroke-width="1.51"/><path d="M-41,218L77,299L40,208Z" fill="#e9f6bf" stroke="#e9f6bf" stroke-width="1.51"/><path d="M1153,1036L1264,1019L1205,922Z" fill="#055a31" stroke="#055a31" stroke-width="1.51"/><path d="M1298,901L1351,947L1395,802Z" fill="#00502d" stroke="#00502d" stroke-width="1.51"/><path d="M1401,-146L1308,-123L1345,-65Z" fill="#86a885" stroke="#86a885" stroke-width="1.51"/><path d="M1345,-65L1308,-123L1311,-19Z" fill="#87ab86" stroke="#87ab86" stroke-width="1.51"/><path d="M1202,-113L1401,-146L801,-98Z" fill="#92bc8e" stroke="#92bc8e" stroke-width="1.51"/><path d="M249,988L-71,1036L469,1014Z" fill="#7b9b6b" stroke="#7b9b6b" stroke-width="1.51"/><path d="M159,892L151,978L261,910Z" fill="#7d9c6c" stroke="#7d9c6c" stroke-width="1.51"/><path d="M98,973L159,892L73,947Z" fill="#7f9d74" stroke="#7f9d74" stroke-width="1.51"/><path d="M42,847L149,741L31,751Z" fill="#8ab282" stroke="#8ab282" stroke-width="1.51"/><path d="M1513,512L1533,388L1469,435Z" fill="#408350" stroke="#408350" stroke-width="1.51"/><path d="M253,-91L177,-150L167,-34Z" fill="#fafdce" stroke="#fafdce" stroke-width="1.51"/><path d="M167,-34L46,-51L99,51Z" fill="#fdfed9" stroke="#fdfed9" stroke-width="1.51"/><path d="M-45,175L-41,218L40,208Z" fill="#f0f9c6" stroke="#f0f9c6" stroke-width="1.51"/><path d="M429,-123L177,-150L253,-91Z" fill="#f2fac9" stroke="#f2fac9" stroke-width="1.51"/><path d="M1401,-146L177,-150L429,-123Z" fill="#c4e6b1" stroke="#c4e6b1" stroke-width="1.51"/><path d="M-45,175L40,208L-29,69Z" fill="#f6fccc" stroke="#f6fccc" stroke-width="1.51"/><path d="M1482,598L1522,589L1513,512Z" fill="#217642" stroke="#217642" stroke-width="1.51"/><path d="M1513,512L1522,589L1533,388Z" fill="#347e4a" stroke="#347e4a" stroke-width="1.51"/><path d="M1483,761L1424,625L1383,740Z" fill="#0d6034" stroke="#0d6034" stroke-width="1.51"/><path d="M1395,802L1483,761L1383,740Z" fill="#035b32" stroke="#035b32" stroke-width="1.51"/><path d="M1264,1019L1351,947L1298,901Z" fill="#00522e" stroke="#00522e" stroke-width="1.51"/><path d="M23,871L42,847L-78,812Z" fill="#86a885" stroke="#86a885" stroke-width="1.51"/><path d="M-41,218L-67,284L77,299Z" fill="#e4f4c0" stroke="#e4f4c0" stroke-width="1.51"/><path d="M-53,331L-94,391L-39,448Z" fill="#cbe9b4" stroke="#cbe9b4" stroke-width="1.51"/><path d="M-29,69L100,177L99,51Z" fill="#fbfdcb" stroke="#fbfdcb" stroke-width="1.51"/><path d="M-41,218L-99,232L-67,284Z" fill="#e8f6c2" stroke="#e8f6c2" stroke-width="1.51"/><path d="M16,727L-78,812L31,751Z" fill="#8db58b" stroke="#8db58b" stroke-width="1.51"/><path d="M-92,673L-40,697L5,590Z" fill="#99c594" stroke="#99c594" stroke-width="1.51"/><path d="M-90,547L7,518L-39,448Z" fill="#b2dca7" stroke="#b2dca7" stroke-width="1.51"/><path d="M1493,842L1483,761L1395,802Z" fill="#00542f" stroke="#00542f" stroke-width="1.51"/><path d="M-67,284L-94,391L-53,331Z" fill="#d7eeb9" stroke="#d7eeb9" stroke-width="1.51"/><path d="M-99,232L-94,391L-67,284Z" fill="#ddf1bd" stroke="#ddf1bd" stroke-width="1.51"/><path d="M-141,505L-90,547L-39,448Z" fill="#b2dda7" stroke="#b2dda7" stroke-width="1.51"/><path d="M49,-94L46,-51L167,-34Z" fill="#fdffdb" stroke="#fdffdb" stroke-width="1.51"/><path d="M-78,812L42,847L31,751Z" fill="#89af88" stroke="#89af88" stroke-width="1.51"/><path d="M42,847L73,947L140,865Z" fill="#81a078" stroke="#81a078" stroke-width="1.51"/><path d="M73,947L159,892L140,865Z" fill="#7f9d73" stroke="#7f9d73" stroke-width="1.51"/><path d="M151,978L-71,1036L249,988Z" fill="#7f9d74" stroke="#7f9d74" stroke-width="1.51"/><path d="M23,871L73,947L42,847Z" fill="#81a07c" stroke="#81a07c" stroke-width="1.51"/><path d="M46,-51L-29,69L99,51Z" fill="#fefedc" stroke="#fefedc" stroke-width="1.51"/><path d="M-45,175L-99,232L-41,218Z" fill="#eef9c5" stroke="#eef9c5" stroke-width="1.51"/><path d="M1548,690L1561,260L1533,388Z" fill="#408350" stroke="#408350" stroke-width="1.51"/><path d="M1533,388L1561,260L1515,333Z" fill="#5c8e5a" stroke="#5c8e5a" stroke-width="1.51"/><path d="M1515,333L1561,260L1465,222Z" fill="#67935e" stroke="#67935e" stroke-width="1.51"/><path d="M1522,589L1548,690L1533,388Z" fill="#237743" stroke="#237743" stroke-width="1.51"/><path d="M1483,761L1530,722L1424,625Z" fill="#0d6034" stroke="#0d6034" stroke-width="1.51"/><path d="M1544,822L1530,722L1483,761Z" fill="#035931" stroke="#035931" stroke-width="1.51"/><path d="M1351,947L1448,893L1395,802Z" fill="#004c2b" stroke="#004c2b" stroke-width="1.51"/><path d="M1401,1016L1448,893L1351,947Z" fill="#00492b" stroke="#00492b" stroke-width="1.51"/><path d="M-141,505L-92,673L-90,547Z" fill="#a4d39e" stroke="#a4d39e" stroke-width="1.51"/><path d="M-124,151L-99,232L-45,175Z" fill="#f1fac8" stroke="#f1fac8" stroke-width="1.51"/><path d="M1530,722L1548,690L1424,625Z" fill="#116336" stroke="#116336" stroke-width="1.51"/><path d="M1544,822L1548,690L1530,722Z" fill="#075b32" stroke="#075b32" stroke-width="1.51"/><path d="M1571,49L1458,-30L1418,41Z" fill="#819d7d" stroke="#819d7d" stroke-width="1.51"/><path d="M1418,41L1458,-30L1345,-65Z" fill="#83a182" stroke="#83a182" stroke-width="1.51"/><path d="M177,-150L49,-94L167,-34Z" fill="#fcfed5" stroke="#fcfed5" stroke-width="1.51"/><path d="M-50,-27L-78,79L-29,69Z" fill="#fefedd" stroke="#fefedd" stroke-width="1.51"/><path d="M-90,547L-92,673L5,590Z" fill="#a0ce9a" stroke="#a0ce9a" stroke-width="1.51"/><path d="M-40,697L-78,812L16,727Z" fill="#8fb78c" stroke="#8fb78c" stroke-width="1.51"/><path d="M-141,505L-39,448L-94,391Z" fill="#bde3ae" stroke="#bde3ae" stroke-width="1.51"/><path d="M1448,893L1493,842L1395,802Z" fill="#004d2c" stroke="#004d2c" stroke-width="1.51"/><path d="M1561,260L1564,148L1465,222Z" fill="#719764" stroke="#719764" stroke-width="1.51"/><path d="M-99,232L-141,505L-94,391Z" fill="#ceeab5" stroke="#ceeab5" stroke-width="1.51"/><path d="M1458,-30L1401,-146L1345,-65Z" fill="#83a283" stroke="#83a283" stroke-width="1.51"/><path d="M1308,-123L1401,-146L1202,-113Z" fill="#88ad87" stroke="#88ad87" stroke-width="1.51"/><path d="M1464,-147L1401,-146L1458,-30Z" fill="#819e81" stroke="#819e81" stroke-width="1.51"/><path d="M-50,-27L-29,69L46,-51Z" fill="#ffffe5" stroke="#ffffe5" stroke-width="1.51"/><path d="M-29,69L-78,79L-45,175Z" fill="#fbfdd0" stroke="#fbfdd0" stroke-width="1.51"/><path d="M-99,232L-124,151L-141,505Z" fill="#def2bd" stroke="#def2bd" stroke-width="1.51"/><path d="M1578,913L1544,822L1493,842Z" fill="#004b2b" stroke="#004b2b" stroke-width="1.51"/><path d="M1264,1019L1401,1016L1351,947Z" fill="#004e2d" stroke="#004e2d" stroke-width="1.51"/><path d="M1418,1029L1401,1016L1264,1019Z" fill="#004c2c" stroke="#004c2c" stroke-width="1.51"/><path d="M1418,1029L1264,1019L1153,1036Z" fill="#00542f" stroke="#00542f" stroke-width="1.51"/><path d="M23,871L-15,960L73,947Z" fill="#819e7d" stroke="#819e7d" stroke-width="1.51"/><path d="M73,947L-15,960L98,973Z" fill="#809d7b" stroke="#809d7b" stroke-width="1.51"/><path d="M-137,717L-78,812L-40,697Z" fill="#8fb88c" stroke="#8fb88c" stroke-width="1.51"/><path d="M-137,717L-40,697L-92,673Z" fill="#94be8f" stroke="#94be8f" stroke-width="1.51"/><path d="M-78,79L-124,151L-45,175Z" fill="#f8fdcd" stroke="#f8fdcd" stroke-width="1.51"/><path d="M1493,842L1544,822L1483,761Z" fill="#00532e" stroke="#00532e" stroke-width="1.51"/><path d="M1578,913L1493,842L1448,893Z" fill="#00472a" stroke="#00472a" stroke-width="1.51"/><path d="M-78,79L-91,-72L-124,151Z" fill="#fefedb" stroke="#fefedb" stroke-width="1.51"/><path d="M-63,-67L-50,-27L46,-51Z" fill="#ffffe5" stroke="#ffffe5" stroke-width="1.51"/><path d="M1401,1016L1418,1029L1448,893Z" fill="#00462a" stroke="#00462a" stroke-width="1.51"/><path d="M1129,1038L1418,1029L1153,1036Z" fill="#025831" stroke="#025831" stroke-width="1.51"/><path d="M-141,505L-137,717L-92,673Z" fill="#9cc996" stroke="#9cc996" stroke-width="1.51"/><path d="M-68,901L23,871L-78,812Z" fill="#84a584" stroke="#84a584" stroke-width="1.51"/><path d="M-68,901L-15,960L23,871Z" fill="#819e81" stroke="#819e81" stroke-width="1.51"/><path d="M1564,148L1571,49L1418,41Z" fill="#7f9d72" stroke="#7f9d72" stroke-width="1.51"/><path d="M1561,260L1571,49L1564,148Z" fill="#789a69" stroke="#789a69" stroke-width="1.51"/><path d="M1578,913L1571,49L1561,260Z" fill="#4a8753" stroke="#4a8753" stroke-width="1.51"/><path d="M1578,913L1561,260L1548,690Z" fill="#1a6c3c" stroke="#1a6c3c" stroke-width="1.51"/><path d="M49,-94L-10,-129L46,-51Z" fill="#ffffe2" stroke="#ffffe2" stroke-width="1.51"/><path d="M-50,-27L-91,-72L-78,79Z" fill="#ffffe5" stroke="#ffffe5" stroke-width="1.51"/><path d="M177,-150L-10,-129L49,-94Z" fill="#fefedc" stroke="#fefedc" stroke-width="1.51"/><path d="M1401,-146L1464,-147L177,-150Z" fill="#9cc896" stroke="#9cc896" stroke-width="1.51"/><path d="M1564,-126L1464,-147L1458,-30Z" fill="#819e81" stroke="#819e81" stroke-width="1.51"/><path d="M-137,717L-68,901L-78,812Z" fill="#88ae88" stroke="#88ae88" stroke-width="1.51"/><path d="M1571,49L1570,14L1458,-30Z" fill="#819e7f" stroke="#819e7f" stroke-width="1.51"/><path d="M-10,-129L-63,-67L46,-51Z" fill="#ffffe5" stroke="#ffffe5" stroke-width="1.51"/><path d="M-10,-129L-91,-72L-63,-67Z" fill="#ffffe5" stroke="#ffffe5" stroke-width="1.51"/><path d="M-63,-67L-91,-72L-50,-27Z" fill="#ffffe5" stroke="#ffffe5" stroke-width="1.51"/><path d="M-71,1036L-43,1010L-68,901Z" fill="#819e81" stroke="#819e81" stroke-width="1.51"/><path d="M-68,901L-43,1010L-15,960Z" fill="#819e81" stroke="#819e81" stroke-width="1.51"/><path d="M-15,960L-43,1010L98,973Z" fill="#819e7f" stroke="#819e7f" stroke-width="1.51"/><path d="M98,973L-71,1036L151,978Z" fill="#809d7a" stroke="#809d7a" stroke-width="1.51"/><path d="M469,1014L-71,1036L721,1041Z" fill="#6e9662" stroke="#6e9662" stroke-width="1.51"/><path d="M1580,1024L1578,913L1448,893Z" fill="#004529" stroke="#004529" stroke-width="1.51"/><path d="M1544,822L1578,913L1548,690Z" fill="#00532e" stroke="#00532e" stroke-width="1.51"/><path d="M1570,14L1564,-126L1458,-30Z" fill="#819e81" stroke="#819e81" stroke-width="1.51"/><path d="M-137,717L-71,1036L-68,901Z" fill="#82a182" stroke="#82a182" stroke-width="1.51"/><path d="M-43,1010L-71,1036L98,973Z" fill="#819e81" stroke="#819e81" stroke-width="1.51"/><path d="M1418,1029L1580,1024L1448,893Z" fill="#004529" stroke="#004529" stroke-width="1.51"/><path d="M1578,913L1580,1024L1571,49Z" fill="#146637" stroke="#146637" stroke-width="1.51"/><path d="M1129,1038L1580,1024L1418,1029Z" fill="#004b2b" stroke="#004b2b" stroke-width="1.51"/></svg>